<?xml version="1.0" encoding="UTF-8"?>
<svg id="Netflix_Logo_RGB" xmlns="http://www.w3.org/2000/svg" version="1.1" viewBox="0 0 1427 383.4">
  <defs>
    <style>
      .cls-1 {
        fill: #e50914;
        stroke-width: 0px;
      }
    </style>
  </defs>
  <g id="Netflix_Logo_RGB-2" data-name="Netflix_Logo_RGB">
    <path class="cls-1" d="M1102.1,347.9c20.1,1.5,40.1,3.2,60.1,5V0h-60.1v347.8ZM135.4,217L57.1,0H0v383.4c20-2.8,40-5.6,60.1-8.2v-208.5l69.6,199.9c21.9-2.5,43.8-4.9,65.8-7.2V0h-60.1v216.9ZM253.3,353.9c55.4-5,111-9.2,166.9-12.4v-59.2c-35.7,2.1-71.3,4.5-106.8,7.3v-89.6c23.3-.2,54-.9,81.2-.6v-59.2c-21.7,0-56.6.3-81.2.6V59.8h106.8V0h-166.9v353.8ZM458.7,59.8h62.9v276.9c20-.8,40-1.4,60.1-1.9V59.8h62.9V0h-185.9v59.7ZM683.1,333.1h60.1v-136.7h81.5v-59.2h-81.5V59.8h107.7V0h-167.8v333.1ZM1427,0h-66l-43.5,100.9L1278.4,0h-65l69.9,180.2-76.3,176.8c21.1,2.1,42.1,4.3,63.2,6.6l44.4-102.8,43.9,113.3c22.9,2.9,45.7,6,68.5,9.3h0s-78.3-201.9-78.3-201.9L1427,0ZM949.5,0h-60.1v336.1c54.6,1.9,109,4.6,163.2,8.2v-59.2c-34.3-2.3-68.6-4.2-103.1-5.8V0Z"/>
  </g>
</svg>