<?xml version="1.0" encoding="UTF-8"?>
<svg id="Netflix_Logo_RGB" data-name="Netflix Logo RGB" xmlns="http://www.w3.org/2000/svg" version="1.1" viewBox="0 0 1297.9 383.4">
  <defs>
    <style>
      .cls-1 {
        fill: #e50914;
        stroke-width: 0px;
      }
    </style>
  </defs>
  <path class="cls-1" d="M242.2,353.9c55.4-5,111-9.2,166.9-12.4v-59.2c-35.7,2.1-71.3,4.5-106.8,7.3v-89.6c23.3-.2,54-.9,81.2-.6v-59.2c-21.7,0-56.6.3-81.2.6V59.8h106.8V0h-166.9v353.8h0Z"/>
  <path class="cls-1" d="M867.7,341.8c55.4,3.8,111,8.4,166.9,14v-59.2c-35.7-3.6-71.3-6.8-106.8-9.6v-89.6l81.2,2.6v-59.2l-81.2-2.6V62.1h106.8V.7h-166.9v341h0Z"/>
  <polygon class="cls-1" points="464.7 333.1 524.8 333.1 524.8 196.4 606.3 196.4 606.3 137.2 524.8 137.2 524.8 59.8 632.5 59.8 632.5 0 464.7 0 464.7 333.1"/>
  <path class="cls-1" d="M729.9-1.1h-60.1v336.1c54.6,1.9,109,4.6,163.2,8.2v-59.2c-34.3-2.3-68.6-4.2-103.1-5.8V-1.1h0Z"/>
  <path class="cls-1" d="M1297.1,0h-66l-43.5,100.9L1148.5,0h-65l69.9,180.2-76.3,176.8c21.1,2.1,42.1,4.3,63.2,6.6l44.4-102.8,43.9,113.3c22.9,2.9,45.7,6,68.5,9.3h0l-78.3-201.9L1297.1,0Z"/>
  <polygon class="cls-1" points="0 .1 54.9 .1 98.4 157.9 136.7 .1 195.5 .1 195.5 359.2 135.3 366.4 135.3 207.4 120.2 300.4 76.6 306 53.5 215.5 53.6 220.7 53.6 375.6 0 383.1 0 .1"/>
</svg>